<?xml version="1.0" encoding="UTF-8"?><svg id="Layer_1" xmlns="http://www.w3.org/2000/svg" viewBox="0 0 183.56 76.58"><polygon points="30.96 61.27 17.69 38.3 30.95 15.33 64.15 15.33 72.99 .01 22.11 .01 8.85 22.98 0 38.3 13.27 61.27 22.11 76.58 65.45 76.58 56.64 61.27 30.96 61.27"/><polygon points="92.85 0 57.9 60.54 66.71 75.85 110.5 0 92.85 0"/><path d="M109.73,16.67l-34.59,59.91h17.69v-.03s8.84-15.29,8.84-15.29v-.03s25.74-44.56,25.74-44.56h-17.68ZM88.4,68.92v-.02s.03.02.03.02h-.03ZM92.82,61.27v-.04s.03.04.03.04h-.03Z"/><path d="M137.03,0h-17.69l-8.84,15.32h17.69L137.03,0ZM123.77,7.66l.06-.1.06.1h-.11Z"/><path d="M183.56,76.49l-22.11-38.29L183.49,0h-17.69l-22.04,38.18h0s8.84,15.32,8.84,15.32l13.26,22.97h0s17.69,0,17.69,0ZM170.29,7.56l.06.1h-.12l.06-.1Z"/><polygon points="122.37 34.35 124.59 38.19 102.48 76.49 120.17 76.49 120.17 76.48 133.43 53.51 142.28 38.19 142.28 38.19 131.22 19.03 122.37 34.35"/></svg>