<?xml version="1.0" encoding="UTF-8"?><svg id="Layer_1" xmlns="http://www.w3.org/2000/svg" xmlns:xlink="http://www.w3.org/1999/xlink" viewBox="0 0 183.554 76.584"><defs><linearGradient id="linear-gradient" x1="24.572" y1="62.759" x2="3.193" y2="30.122" gradientUnits="userSpaceOnUse"><stop offset="0" stop-color="aqua"/><stop offset="1" stop-color="#6495ed"/></linearGradient><linearGradient id="linear-gradient-2" x1="62.522" y1="67.586" x2="36.924" y2="69.065" xlink:href="#linear-gradient"/><linearGradient id="linear-gradient-3" x1="105.931" y1="-5.856" x2="60.412" y2="70.353" xlink:href="#linear-gradient"/><linearGradient id="linear-gradient-4" x1="57.378" y1="7.717" x2="25.691" y2="7.384" xlink:href="#linear-gradient"/><linearGradient id="linear-gradient-5" x1="10.521" y1="33.211" x2="24.485" y2="12.264" xlink:href="#linear-gradient"/><linearGradient id="linear-gradient-6" x1="125.603" y1="5.894" x2="80.083" y2="82.103" xlink:href="#linear-gradient"/><linearGradient id="linear-gradient-7" x1="125.026" y1="5.55" x2="79.507" y2="81.759" xlink:href="#linear-gradient"/><linearGradient id="linear-gradient-8" x1="155.046" y1="42.741" x2="174.339" y2="75.467" xlink:href="#linear-gradient"/><linearGradient id="linear-gradient-9" x1="2.08" y1="24.574" x2="182.98" y2="26.955" xlink:href="#linear-gradient"/><linearGradient id="linear-gradient-10" x1="131.661" y1="45.475" x2="107.972" y2="75.758" xlink:href="#linear-gradient"/><linearGradient id="linear-gradient-11" x1="1.949" y1="34.553" x2="182.849" y2="36.933" xlink:href="#linear-gradient"/></defs><polygon points="30.95 61.265 13.264 61.265 0 38.292 8.843 22.976 13.264 30.634 17.686 38.292 30.95 61.265" fill="url(#linear-gradient)"/><polygon points="65.448 76.582 22.108 76.582 13.266 61.267 56.635 61.267 65.448 76.582" fill="url(#linear-gradient-2)"/><polygon points="110.499 0 66.71 75.851 57.897 60.536 92.852 0 110.499 0" fill="url(#linear-gradient-3)"/><polygon points="72.985 .003 64.143 15.318 30.95 15.318 39.792 .003 72.985 .003" fill="url(#linear-gradient-4)"/><polygon points="39.792 .003 17.686 38.292 8.843 22.976 22.107 .003 39.792 .003" fill="url(#linear-gradient-5)"/><path d="M109.723,16.675l-34.593,59.909h17.692l.007-.03,8.835-15.285.015-.03,25.729-44.565h-17.684ZM88.4,68.923l.007-.022.022.022h-.03ZM92.821,61.269l.007-.037.022.037h-.03Z" fill="url(#linear-gradient-6)"/><path d="M119.342.003l-8.838,15.316h17.686L137.028.003h-17.686ZM123.763,7.661l.057-.097.057.097h-.115Z" fill="url(#linear-gradient-7)"/><polygon points="165.863 76.485 165.863 76.478 152.6 53.509 161.442 38.194 183.554 76.485 165.863 76.485" fill="url(#linear-gradient-8)"/><path d="M165.796.007l-22.039,38.18v.007l8.842,15.315,8.842-15.315L183.488.007h-17.692ZM170.284,7.557l.059.103h-.118l.059-.103Z" fill="url(#linear-gradient-9)"/><polygon points="133.432 53.509 120.169 76.478 120.169 76.485 102.477 76.485 124.59 38.194 133.432 53.509" fill="url(#linear-gradient-10)"/><polygon points="142.281 38.187 142.281 38.194 133.432 53.509 124.59 38.194 122.368 34.349 131.218 19.027 142.281 38.187" fill="url(#linear-gradient-11)"/></svg>